<?xml version="1.0" standalone="no"?>
<!DOCTYPE svg PUBLIC "-//W3C//DTD SVG 20010904//EN"
 "http://www.w3.org/TR/2001/REC-SVG-20010904/DTD/svg10.dtd">
<svg version="1.0" xmlns="http://www.w3.org/2000/svg"
 width="823.000000pt" height="582.000000pt" viewBox="0 0 823.000000 582.000000"
 preserveAspectRatio="xMidYMid meet">

<g transform="translate(0.000000,582.000000) scale(0.100000,-0.100000)"
fill="#000000" stroke="none">
<path d="M3426 5679 c-11 -10 -27 -17 -36 -14 -9 3 -29 -7 -47 -23 -29 -28
-31 -28 -44 -10 -8 10 -18 16 -24 14 -5 -2 -18 1 -27 5 -11 6 -22 4 -32 -7
-11 -11 -31 -14 -71 -12 -56 4 -74 -5 -31 -16 19 -5 23 -11 18 -28 -4 -17 -2
-20 11 -15 10 4 25 3 35 0 13 -5 8 -9 -18 -14 -24 -5 -42 -3 -56 6 -16 10 -24
11 -33 2 -8 -8 -11 -7 -11 5 0 9 -6 18 -12 21 -8 2 -9 8 -4 13 5 5 11 4 13 -3
3 -7 12 -13 20 -13 13 0 13 3 3 15 -16 19 -64 20 -57 2 3 -9 -12 -23 -44 -38
-42 -20 -49 -27 -44 -46 6 -25 -10 -32 -19 -8 -3 8 -13 15 -23 15 -11 0 -14 3
-7 8 6 4 13 17 16 28 4 17 1 22 -18 22 -27 0 -30 -8 -12 -26 9 -9 9 -12 0 -12
-21 0 -13 -16 13 -28 14 -6 25 -17 25 -23 0 -7 -4 -8 -12 -2 -20 14 -78 16
-78 3 0 -7 -7 -9 -16 -6 -13 5 -15 1 -10 -18 3 -14 2 -28 -4 -31 -5 -3 -10 -1
-10 5 0 6 -5 8 -10 5 -6 -4 -7 -12 -4 -18 3 -7 -5 1 -20 17 -24 26 -25 31 -11
46 19 21 19 40 1 40 -7 0 -19 -13 -26 -30 -7 -16 -18 -30 -26 -30 -7 0 -15 -9
-19 -20 -8 -24 -56 -60 -82 -60 -18 0 -49 -37 -45 -54 2 -5 -1 -12 -5 -15 -4
-3 -13 -15 -19 -25 -16 -29 -38 -34 -31 -7 3 14 1 21 -6 18 -7 -2 -14 -14 -16
-28 -1 -13 -6 -26 -10 -29 -12 -8 -22 -60 -12 -60 5 0 8 -19 7 -42 -1 -22 4
-75 11 -117 19 -100 33 -331 22 -353 -14 -26 -11 -111 2 -102 12 7 10 -15 -10
-90 -7 -30 -6 -56 5 -105 9 -36 20 -71 24 -77 5 -5 12 -36 16 -67 4 -35 11
-54 17 -50 6 4 8 -2 5 -15 -4 -12 0 -26 8 -33 8 -6 14 -25 14 -41 0 -16 9 -38
20 -50 10 -11 22 -35 26 -52 7 -32 44 -78 44 -54 0 8 3 9 8 3 4 -6 23 -19 43
-29 41 -21 69 -70 69 -117 0 -16 6 -42 14 -57 7 -15 19 -52 26 -82 18 -82 42
-150 110 -309 79 -186 153 -333 188 -372 52 -60 143 -137 202 -171 59 -34 76
-55 83 -101 7 -46 -6 -56 -113 -88 -98 -29 -177 -69 -235 -119 -52 -45 -100
-72 -160 -90 -35 -10 -45 -20 -69 -66 -28 -53 -90 -114 -117 -114 -7 0 -26
-12 -41 -27 -25 -23 -32 -26 -48 -15 -24 15 -45 15 -112 0 l-53 -11 30 -12
c17 -7 46 -15 66 -18 47 -6 59 -14 59 -39 0 -11 14 -33 32 -50 36 -34 37 -33
69 59 25 74 35 86 60 70 22 -14 33 -45 49 -135 13 -73 0 -117 -36 -126 -17 -5
-21 -11 -17 -28 5 -19 3 -21 -7 -11 -11 10 -16 7 -27 -14 -17 -33 -17 -33 10
-34 l22 0 -23 -11 c-13 -6 -21 -17 -18 -24 3 -7 -2 -18 -10 -25 -13 -11 -31
-45 -49 -94 -8 -20 -16 -58 -34 -150 -41 -218 -149 -453 -208 -455 -7 0 -13
-5 -13 -10 0 -7 -7 -7 -20 0 -12 6 -30 8 -41 5 -11 -4 -27 -1 -35 5 -8 8 -27
10 -45 6 -25 -5 -30 -3 -25 9 3 10 -1 15 -12 15 -22 0 -82 106 -82 144 0 13
-7 31 -15 40 -8 8 -15 19 -15 25 0 6 -5 11 -11 11 -6 0 -8 8 -5 18 4 10 -4 29
-19 46 -26 31 -31 41 -15 31 6 -3 7 1 4 9 -3 9 -14 16 -23 16 -12 0 -13 2 -3
8 9 7 8 13 -8 27 -11 10 -25 36 -32 57 -6 21 -15 38 -19 38 -5 0 -12 15 -17
32 -5 19 -19 39 -35 48 -30 17 -47 7 -29 -18 6 -9 46 -84 87 -167 41 -82 91
-179 110 -215 19 -35 35 -70 35 -77 0 -17 -112 59 -166 113 -51 52 -73 64
-116 64 -37 0 -111 40 -205 110 -54 40 -72 62 -77 95 -3 23 -24 47 -39 44 -14
-4 -14 -8 3 -44 11 -22 22 -55 26 -73 8 -41 90 -125 186 -190 40 -27 93 -66
117 -86 24 -20 73 -53 110 -73 138 -78 246 -161 230 -177 -6 -6 -163 58 -182
74 -6 6 -41 29 -77 52 -36 23 -67 45 -68 50 -4 9 -42 32 -42 25 0 -22 218
-185 311 -232 38 -20 51 -34 77 -88 18 -35 32 -68 32 -73 -1 -5 -13 15 -28 45
-15 30 -33 56 -40 59 -20 6 -6 -54 40 -176 22 -57 37 -109 35 -115 -6 -15 -6
-14 -56 132 -37 104 -43 116 -72 128 -19 8 -45 11 -61 8 -32 -8 -31 -5 -17
-42 6 -15 10 -30 11 -33 0 -3 4 -11 10 -18 6 -6 7 -12 2 -12 -4 0 1 -10 12
-23 11 -12 26 -35 34 -52 8 -16 16 -34 18 -38 2 -5 -12 -5 -31 -2 -22 4 -37 3
-42 -5 -4 -7 1 -9 17 -5 16 4 29 1 37 -9 8 -9 10 -16 5 -16 -4 0 3 -11 15 -24
15 -16 19 -26 11 -31 -13 -8 -40 12 -40 30 0 7 -8 15 -17 19 -10 3 -23 9 -30
12 -7 3 -10 -2 -6 -15 4 -15 1 -21 -11 -21 -10 0 -13 -6 -10 -15 4 -8 1 -15
-5 -15 -6 0 -11 -7 -11 -15 0 -8 -9 -19 -19 -24 -19 -10 -241 -11 -241 -1 0 3
-80 6 -177 8 -98 2 -180 7 -183 11 -5 9 -48 19 -115 27 -22 3 -63 17 -92 30
-28 14 -76 27 -105 31 l-53 6 25 -28 c14 -15 57 -51 96 -80 80 -61 101 -83
199 -219 98 -135 142 -211 150 -256 l7 -40 134 0 134 0 19 37 c39 77 154 156
276 189 54 15 538 18 743 5 99 -6 105 -7 130 -36 22 -24 36 -30 72 -31 76 -3
154 -15 187 -30 37 -17 62 -18 99 -3 18 6 181 10 459 10 236 0 459 4 495 10
36 5 94 14 130 19 36 5 90 14 120 19 42 8 45 9 13 6 -24 -1 -43 0 -43 5 0 9
116 23 129 16 28 -18 54 92 77 327 8 78 6 79 -78 47 -61 -23 -79 -24 -130 -6
-44 16 -51 7 -11 -11 31 -15 98 -16 161 -4 45 9 46 7 32 -39 l-7 -25 -7 27
c-7 24 -10 25 -39 17 -17 -5 -42 -20 -55 -34 -12 -14 -30 -25 -39 -25 -9 0
-22 -8 -29 -17 -11 -16 -13 -16 -14 -2 0 8 -11 26 -25 39 -25 24 -51 93 -40
110 3 5 1 11 -5 15 -14 9 -13 51 3 63 6 5 37 17 67 26 76 22 114 47 134 90 9
20 28 43 41 52 13 8 26 27 30 41 3 14 13 32 20 40 18 17 20 50 4 55 -8 3 -6
14 5 36 9 18 14 32 11 32 -7 0 -45 -77 -45 -92 0 -9 3 -9 11 2 8 11 9 9 3 -10
-7 -25 -90 -130 -103 -130 -4 0 -7 8 -8 18 -1 9 -2 32 -4 50 -1 23 -7 32 -20
32 -10 0 -20 4 -23 9 -3 5 -18 8 -33 8 l-28 0 33 -14 c35 -14 62 -61 62 -107
0 -19 -7 -27 -24 -32 -31 -7 -46 1 -46 26 0 10 -4 22 -10 25 -16 10 -12 -38 5
-62 14 -20 13 -23 -19 -42 -46 -29 -54 -27 -66 21 -12 43 -10 98 5 133 8 18 7
19 -8 6 -15 -12 -17 -11 -17 10 0 12 9 52 21 88 37 115 140 414 160 465 10 27
19 53 19 58 0 6 6 24 14 41 7 18 28 77 45 132 18 55 46 127 62 160 30 61 36
72 77 136 25 42 27 49 10 49 -13 0 -98 -79 -98 -92 0 -4 -10 -18 -22 -31 -45
-49 -78 -92 -78 -104 0 -7 -4 -13 -9 -13 -21 0 -126 -164 -116 -181 4 -5 -7
-12 -24 -15 -17 -4 -31 -12 -31 -20 0 -7 -8 -18 -17 -23 -15 -9 -15 -12 -4
-20 20 -13 4 -50 -27 -62 -20 -8 -23 -12 -12 -19 11 -7 11 -11 1 -23 -10 -13
-8 -16 11 -19 l23 -3 -22 -22 c-14 -14 -20 -29 -16 -42 3 -12 1 -21 -6 -21 -6
0 -11 3 -11 8 0 4 -11 8 -26 8 -23 2 -24 1 -7 -11 10 -7 21 -11 25 -9 5 3 8
-6 8 -20 0 -29 -17 -43 -33 -27 -8 8 -6 11 9 11 15 0 16 2 5 9 -9 6 -23 6 -35
-1 -20 -11 -20 -11 2 -21 12 -6 22 -14 22 -19 0 -4 8 -8 18 -8 15 -1 15 -2 -3
-16 -11 -8 -19 -20 -18 -25 2 -5 -5 -9 -15 -9 -11 0 -13 -3 -5 -8 7 -4 11 -16
9 -26 -3 -22 -42 -41 -51 -25 -7 11 -25 2 -25 -12 0 -6 4 -7 10 -4 5 3 18 1
27 -5 17 -11 17 -11 1 -6 -10 3 -18 1 -18 -4 0 -6 4 -10 8 -10 14 0 8 -43 -7
-62 -8 -10 -17 -15 -19 -13 -3 3 1 11 8 20 8 9 8 15 2 15 -6 0 -14 -9 -17 -20
-3 -11 -13 -20 -21 -20 -8 0 -14 -4 -14 -10 0 -5 7 -7 15 -4 21 9 88 -60 81
-83 -6 -20 -46 -29 -46 -11 0 6 -9 3 -20 -7 -13 -12 -18 -25 -14 -37 5 -18 1
-19 -58 -15 -34 2 -64 7 -65 10 -13 33 41 100 77 96 40 -3 62 0 56 10 -3 5
-29 7 -57 5 -50 -3 -74 -18 -99 -63 -6 -12 -14 -9 -40 15 -18 16 -40 37 -49
48 -9 10 -26 29 -38 42 -13 13 -23 26 -23 30 0 4 -7 15 -16 25 -11 12 -14 27
-10 45 7 25 9 26 49 19 23 -5 53 -7 67 -7 14 1 43 2 64 2 21 1 47 7 57 14 18
12 17 14 -15 31 l-34 19 17 35 c10 20 16 44 13 53 -2 10 1 18 6 18 5 0 13 15
16 33 7 37 80 155 101 163 8 3 11 12 9 19 -3 7 3 16 14 19 11 4 23 14 26 23 5
12 9 13 21 3 12 -10 15 -9 15 8 0 12 12 26 33 36 54 28 94 61 89 74 -2 7 1 12
8 12 14 0 59 51 60 68 0 6 5 12 10 12 6 0 14 8 17 18 4 9 15 26 25 36 10 11
18 26 18 33 0 7 4 13 10 13 5 0 9 5 7 10 -1 6 41 46 93 88 52 43 107 96 122
118 41 58 34 63 -11 6 -21 -27 -70 -72 -108 -100 -74 -57 -106 -69 -55 -23 18
17 28 33 22 36 -6 4 -7 11 -4 17 4 6 10 5 16 -3 10 -14 8 -4 -8 50 -5 17 -4
22 4 17 7 -4 12 -14 12 -22 0 -8 5 -14 10 -14 14 0 13 5 -9 48 -18 37 -19 49
-8 177 4 39 9 128 13 198 5 114 8 128 23 122 16 -7 63 -21 109 -32 12 -3 22
-1 22 6 0 5 -7 8 -15 5 -27 -11 -79 41 -114 112 -36 74 -44 119 -61 326 -6 70
-17 162 -25 205 -8 43 -15 103 -15 133 0 30 -4 70 -10 88 -13 46 2 118 29 141
18 15 28 18 49 10 56 -19 152 39 152 93 0 16 -4 27 -9 23 -5 -3 -18 6 -29 20
-11 14 -27 25 -36 25 -9 0 -16 8 -16 19 0 19 24 51 39 51 4 0 21 30 36 68 16
37 32 72 36 77 22 30 27 215 7 292 -8 34 -8 47 3 60 11 13 11 17 1 21 -10 3
-10 7 -2 17 7 8 12 38 13 67 0 56 -12 188 -19 200 -2 3 2 9 8 11 8 3 6 6 -4 6
-14 1 -18 10 -18 36 0 25 -7 43 -23 58 -30 27 -47 59 -47 86 0 11 -8 28 -19
38 -21 20 -33 67 -34 131 0 23 -3 42 -7 42 -4 0 -13 12 -19 28 -6 15 -34 47
-61 71 -27 24 -47 48 -44 52 3 5 -2 9 -10 9 -8 0 -18 9 -21 20 -3 11 -15 20
-26 20 -17 0 -24 11 -20 34 1 5 -5 6 -14 2 -14 -5 -59 27 -49 36 6 7 -38 43
-68 56 -24 10 -26 9 -21 -6 4 -9 12 -21 20 -25 20 -12 15 -27 -9 -27 -24 0
-63 20 -40 20 6 0 12 5 12 11 0 6 -7 9 -15 6 -8 -4 -17 -2 -20 3 -4 6 -15 10
-26 10 -10 0 -19 5 -19 11 0 6 -7 9 -15 5 -8 -3 -15 0 -15 5 0 6 -8 9 -18 7
-12 -3 -24 2 -31 14 -7 12 -18 17 -28 14 -13 -5 -14 -4 -3 9 15 18 14 18 -25
6 -21 -6 -34 -4 -42 5 -10 10 -10 14 0 18 9 3 8 7 -3 15 -12 8 -8 11 17 11 17
0 34 -4 37 -9 3 -4 19 -11 36 -15 22 -4 30 -11 28 -23 -2 -10 5 -19 19 -22 13
-3 31 -13 40 -21 20 -16 63 -15 63 2 0 6 -10 8 -25 4 -18 -5 -25 -2 -25 9 0 8
-7 15 -16 15 -14 0 -14 3 -3 16 10 13 10 17 -2 25 -8 5 -20 6 -28 4 -8 -3 -18
0 -23 7 -13 21 -9 28 10 21 15 -6 15 -5 3 10 -17 21 -31 22 -31 2 0 -16 -12
-20 -24 -8 -4 4 -28 6 -54 5 -34 -2 -43 0 -32 7 11 8 12 13 3 22 -9 9 -16 8
-28 -5 -23 -22 -32 -20 -39 9 -3 13 -16 30 -29 36 -12 7 -25 16 -28 22 -4 5
-17 6 -29 2 l-23 -7 24 -19 c13 -10 20 -21 15 -26 -5 -4 -11 -2 -13 5 -3 6
-10 12 -16 12 -6 0 -19 8 -30 17 -18 17 -19 17 -16 -2 3 -15 -3 -20 -33 -26
-40 -6 -46 -1 -26 19 10 10 10 15 -2 22 -13 9 -13 11 0 20 10 6 11 10 3 10 -7
0 -13 5 -13 11 0 7 10 9 28 5 26 -6 26 -6 8 9 -23 17 -36 19 -36 5 0 -5 -8
-10 -17 -10 -17 -1 -17 -1 -1 -14 19 -14 14 -28 -7 -20 -10 4 -12 -1 -8 -15 6
-24 -5 -28 -21 -7 -6 8 -24 18 -40 22 -25 6 -28 5 -23 -10 5 -12 3 -16 -5 -13
-14 4 -16 40 -4 75 6 19 4 22 -18 22 -14 0 -28 5 -31 10 -3 6 -11 10 -16 10
-17 0 10 -38 30 -42 16 -3 17 -7 8 -28 -8 -21 -11 -22 -14 -7 -3 9 -8 15 -13
12 -4 -3 -11 6 -14 19 -3 13 -13 26 -21 30 -19 7 -19 1 1 -19 11 -10 13 -20 7
-26 -6 -6 -14 4 -23 26 -12 31 -18 35 -49 34 -22 0 -44 -8 -55 -20z m-185 -80
c11 -11 18 -24 14 -27 -4 -4 -13 1 -20 11 -9 13 -20 17 -34 12 -22 -7 -30 10
-8 18 21 9 26 8 48 -14z m119 -63 c0 -4 -7 -3 -15 4 -18 15 -35 5 -35 -21 0
-21 -16 -24 -40 -9 -13 8 -12 10 3 10 9 0 17 7 17 15 0 22 31 35 52 22 10 -7
18 -16 18 -21z m340 -19 c0 -5 -14 -7 -31 -3 -29 5 -30 4 -18 -11 13 -15 12
-16 -6 -8 -11 5 -32 9 -48 10 -27 2 -52 15 -28 15 7 0 9 5 5 11 -5 8 1 10 18
6 17 -5 31 -1 44 12 19 18 20 18 42 -2 12 -11 22 -25 22 -30z m-658 3 c4 0 8
-7 8 -15 0 -8 8 -15 18 -16 10 0 5 -5 -12 -11 -25 -9 -31 -8 -43 8 -11 15 -17
17 -33 6 -29 -18 -35 -15 -15 8 10 12 25 18 32 16 15 -6 18 10 3 19 -5 3 -10
11 -10 16 0 5 10 1 22 -11 12 -11 25 -20 30 -20z m111 19 c14 2 18 -3 15 -16
-5 -25 -37 -29 -53 -6 -15 20 -10 37 8 26 7 -4 20 -6 30 -4z m57 1 c0 -5 -2
-10 -4 -10 -3 0 -8 5 -11 10 -3 6 -1 10 4 10 6 0 11 -4 11 -10z m190 -5 c0 -8
-4 -15 -10 -15 -5 0 -10 7 -10 15 0 8 5 15 10 15 6 0 10 -7 10 -15z m454 6
c12 -19 -6 -40 -32 -36 -15 1 -31 3 -37 4 -10 1 45 41 57 41 4 0 9 -4 12 -9z
m81 -1 c3 -5 1 -10 -4 -10 -6 0 -11 5 -11 10 0 6 2 10 4 10 3 0 8 -4 11 -10z
m-559 -37 c19 -25 17 -53 -3 -53 -13 0 -14 3 -6 11 9 9 8 18 -4 35 -18 28 -7
33 13 7z m54 7 c0 -5 -4 -10 -10 -10 -5 0 -10 5 -10 10 0 6 5 10 10 10 6 0 10
-4 10 -10z m124 -16 c3 -8 12 -14 21 -14 8 0 15 -4 15 -10 0 -5 -7 -7 -15 -4
-8 4 -15 1 -15 -5 0 -20 -15 -11 -27 16 -7 15 -13 30 -13 35 0 12 28 -2 34
-18z m-438 1 c9 -8 12 -20 8 -26 -5 -9 -11 -6 -21 6 -23 33 -14 47 13 20z
m129 -5 c-8 -25 13 -27 55 -5 22 12 29 12 33 2 7 -20 -4 -68 -14 -61 -5 3 -7
9 -5 13 3 4 -7 8 -22 9 -14 1 -29 -3 -33 -10 -5 -8 -11 -4 -18 14 -5 14 -15
29 -21 33 -9 6 -9 10 1 16 23 14 31 10 24 -11z m715 9 c0 -6 7 -9 15 -5 19 7
20 -8 2 -23 -10 -8 -17 -7 -25 1 -15 15 -16 38 -2 38 6 0 10 -5 10 -11z m-195
-17 c-11 -2 -25 -8 -31 -13 -13 -10 -44 -2 -44 11 0 5 17 10 38 12 41 4 69 -4
37 -10z m119 -10 c-13 -10 -15 -16 -6 -19 14 -5 16 -39 3 -47 -18 -12 -39 6
-36 30 1 13 -2 24 -6 24 -14 0 -11 28 3 32 7 3 23 2 37 0 23 -5 24 -5 5 -20z
m-1028 -23 c19 -22 19 -22 -3 -8 -13 8 -23 17 -23 21 0 12 6 9 26 -13z m669
-7 c-2 -3 -12 -1 -22 2 -15 6 -15 9 -3 16 13 8 35 -8 25 -18z m-491 2 c3 -8 2
-12 -4 -9 -6 3 -10 10 -10 16 0 14 7 11 14 -7z m-313 -16 c24 -30 24 -37 -1
-31 -11 3 -20 9 -20 13 0 5 -3 15 -6 24 -9 23 5 20 27 -6z m1008 13 c11 -7 9
-10 -8 -16 -22 -7 -41 0 -41 16 0 11 30 12 49 0z m-575 -22 c-8 -14 -24 -10
-24 6 0 9 6 12 15 9 8 -4 12 -10 9 -15z m62 8 c8 3 14 0 14 -6 0 -6 -7 -11
-15 -11 -12 0 -13 -4 -6 -19 8 -15 7 -20 -8 -24 -15 -4 -18 2 -18 35 0 26 3
36 10 29 5 -5 16 -7 23 -4z m144 -19 c0 -23 -3 -29 -9 -19 -8 12 -4 51 5 51 2
0 4 -15 4 -32z m74 16 c3 -8 2 -12 -4 -9 -6 3 -10 10 -10 16 0 14 7 11 14 -7z
m-518 -31 c12 -15 21 -30 18 -35 -8 -12 -32 -10 -40 4 -5 8 -2 9 9 5 14 -5 15
-3 4 13 -6 11 -17 20 -24 20 -7 0 -13 5 -13 10 0 19 22 10 46 -17z m1079 17
c3 -5 -1 -10 -9 -10 -9 0 -16 5 -16 10 0 6 4 10 9 10 6 0 13 -4 16 -10z m-870
-20 l30 -20 -31 0 c-23 0 -33 5 -37 20 -6 25 0 25 38 0z m-445 -10 c0 -5 -7
-10 -15 -10 -8 0 -15 5 -15 10 0 6 7 10 15 10 8 0 15 -4 15 -10z m160 -10 c0
-11 -4 -20 -9 -20 -5 0 -7 9 -4 20 3 11 7 20 9 20 2 0 4 -9 4 -20z m1260 5 c7
-8 8 -15 2 -15 -5 0 -15 7 -22 15 -7 8 -8 15 -2 15 5 0 15 -7 22 -15z m-88 -4
c-11 -7 -11 -9 1 -14 8 -3 19 -1 25 5 12 12 28 4 41 -20 8 -15 3 -17 -33 -18
-35 -1 -44 3 -53 22 -8 17 -8 24 1 28 19 8 32 6 18 -3z m-1342 -30 c0 -4 15
-24 34 -44 40 -44 32 -50 -9 -7 -16 17 -34 30 -41 30 -6 0 -14 8 -17 19 -3 14
0 17 14 14 11 -3 19 -8 19 -12z m39 3 c4 3 7 -4 7 -14 0 -14 -3 -16 -13 -8 -7
6 -13 18 -12 27 0 10 2 12 6 3 2 -6 8 -10 12 -8z m-105 -16 c-4 -13 -7 -28 -7
-35 0 -7 -4 -10 -8 -7 -28 17 -25 -79 3 -114 6 -7 9 -15 6 -18 -3 -2 -18 12
-33 32 -16 21 -23 34 -17 30 7 -4 12 -1 12 9 0 12 -6 15 -20 10 -11 -3 -20 -2
-20 3 0 5 9 12 19 15 13 3 22 17 27 43 6 37 18 53 37 54 5 0 5 -10 1 -22z
m838 0 c-7 -7 -12 -8 -12 -2 0 14 12 26 19 19 2 -3 -1 -11 -7 -17z m-568 -3
c-22 -16 -50 -19 -59 -6 -5 8 15 14 64 20 10 1 8 -4 -5 -14z m621 5 c3 -6 -1
-17 -9 -26 -15 -14 -16 -13 -16 10 0 26 13 35 25 16z m50 -11 c-10 -15 -25
-10 -19 6 4 8 10 12 15 9 5 -3 7 -10 4 -15z m-897 -40 c2 -22 1 -23 -11 -7 -8
10 -17 15 -20 11 -4 -3 -7 -2 -7 4 0 33 34 26 38 -8z m1502 15 c0 -9 -5 -14
-12 -12 -18 6 -21 28 -4 28 9 0 16 -7 16 -16z m-1345 -4 c3 -5 -1 -10 -10 -10
-9 0 -13 5 -10 10 3 6 8 10 10 10 2 0 7 -4 10 -10z m1500 -10 c3 -5 1 -10 -4
-10 -6 0 -11 5 -11 10 0 6 2 10 4 10 3 0 8 -4 11 -10z m98 3 c8 -8 -25 -33
-35 -27 -5 3 -8 12 -8 20 0 14 31 20 43 7z m-433 -23 c0 -5 -2 -10 -4 -10 -3
0 -8 5 -11 10 -3 6 -1 10 4 10 6 0 11 -4 11 -10z m210 0 c0 -5 -2 -10 -4 -10
-3 0 -8 5 -11 10 -3 6 -1 10 4 10 6 0 11 -4 11 -10z m-61 -25 c11 -11 7 -13
-27 -9 -23 2 -44 -1 -47 -6 -3 -6 -1 -10 5 -10 6 0 8 -5 4 -11 -5 -8 -9 -8
-14 1 -5 7 -13 9 -21 5 -8 -5 -5 1 5 13 11 12 15 22 10 22 -5 0 -2 5 6 10 18
12 59 4 79 -15z m181 15 c0 -11 -37 -23 -49 -15 -5 3 -12 1 -16 -5 -12 -19
-26 -11 -16 9 7 13 21 19 46 19 19 0 35 -4 35 -8z m143 -10 c14 -1 52 -50 39
-50 -6 0 -13 7 -16 16 -4 11 -13 13 -27 9 -18 -6 -21 -4 -16 9 6 14 3 16 -16
11 -22 -6 -22 -6 -2 10 12 9 21 12 23 5 2 -5 9 -10 15 -10z m-1773 -65 c6 -8
10 -20 7 -27 -6 -17 -37 58 -36 86 1 14 4 10 9 -11 4 -18 13 -40 20 -48z
m-127 -5 c-3 -3 -11 3 -18 14 -8 10 -20 16 -28 13 -11 -4 -13 0 -9 15 5 19 6
19 32 -8 15 -16 25 -31 23 -34z m1760 54 c11 -11 -3 -24 -18 -18 -8 4 -12 10
-9 15 6 11 18 12 27 3z m-1423 -20 c0 -2 -9 -4 -20 -4 -11 0 -20 4 -20 9 0 5
9 7 20 4 11 -3 20 -7 20 -9z m1650 -14 c8 -5 11 -12 7 -16 -4 -4 -15 0 -24 9
-18 18 -8 23 17 7z m-213 -22 c11 -15 15 -58 5 -58 -10 0 -41 58 -34 64 9 9
19 7 29 -6z m-1607 -18 c0 -5 -2 -10 -4 -10 -3 0 -8 5 -11 10 -3 6 -1 10 4 10
6 0 11 -4 11 -10z m-52 -28 c20 -31 1 -27 -22 5 -12 16 -14 24 -6 21 7 -2 20
-14 28 -26z m69 21 c-4 -3 1 -12 11 -19 15 -12 15 -13 -9 -14 -34 0 -43 10
-21 26 18 14 30 19 19 7z m1483 -9 c0 -8 -4 -12 -10 -9 -5 3 -10 10 -10 16 0
5 5 9 10 9 6 0 10 -7 10 -16z m-1305 -4 c3 -5 1 -10 -4 -10 -6 0 -11 5 -11 10
0 6 2 10 4 10 3 0 8 -4 11 -10z m1485 -15 c0 -8 5 -15 12 -15 6 0 2 -9 -10
-20 -26 -25 -47 -26 -37 -2 4 9 8 24 10 32 2 8 4 16 4 18 3 10 21 -1 21 -13z
m-203 -12 c2 -6 -3 -13 -12 -16 -10 -5 -15 0 -15 14 0 21 21 22 27 2z m423
-21 c0 -15 -2 -15 -10 -2 -13 20 -13 33 0 25 6 -3 10 -14 10 -23z m-946 -26
c16 -21 68 -33 64 -15 -3 15 16 16 70 4 27 -6 31 -5 26 9 -4 11 -1 16 11 16
12 0 15 -5 11 -16 -6 -15 -3 -15 20 1 l27 17 -6 -37 c-5 -30 -3 -36 9 -31 9 4
18 -3 24 -18 5 -13 19 -34 32 -46 13 -12 24 -27 24 -33 1 -7 2 -17 3 -23 3
-30 81 -91 101 -79 6 3 10 1 10 -5 0 -7 5 -10 12 -8 16 6 47 -27 51 -53 2 -11
8 -24 14 -27 13 -9 27 -82 15 -82 -5 0 -15 7 -22 15 -21 25 -23 9 -4 -25 11
-17 62 -60 114 -95 52 -36 106 -72 120 -82 14 -9 42 -34 62 -55 20 -21 41 -38
46 -38 5 0 9 -6 10 -12 2 -20 26 -102 32 -108 3 -3 6 -30 8 -60 1 -30 7 -67
13 -83 14 -33 7 -70 -26 -142 -18 -40 -22 -61 -16 -77 5 -13 9 -44 9 -70 0
-27 1 -53 1 -58 1 -6 9 -10 19 -8 15 3 17 -7 18 -82 0 -47 -3 -92 -7 -100 -4
-8 -13 -30 -20 -48 -17 -46 -54 -60 -80 -30 -10 13 -22 33 -25 46 -3 12 -14
22 -23 22 -10 0 -27 11 -39 25 -12 14 -28 25 -36 25 -8 0 -27 5 -43 11 -15 7
-41 13 -58 15 -16 2 -47 11 -68 19 -21 9 -42 13 -47 10 -19 -12 -159 34 -179
59 -7 9 -20 16 -27 16 -8 0 -23 6 -34 12 -14 9 -23 9 -30 2 -8 -8 -1 -32 24
-85 48 -103 86 -197 86 -216 0 -13 -14 -15 -95 -11 -52 2 -97 7 -101 11 -4 4
0 23 9 43 20 42 33 140 23 179 -6 25 -8 26 -20 10 -9 -13 -15 -15 -20 -7 -4 7
-26 12 -48 12 -25 0 -49 7 -60 17 -16 15 -25 15 -63 5 -24 -6 -70 -14 -102
-18 -95 -9 -100 -11 -106 -44 -5 -21 -12 -30 -26 -30 -15 0 -21 -9 -26 -40 -4
-22 -11 -40 -16 -40 -5 0 -17 -8 -27 -18 -43 -43 -66 -52 -131 -52 -36 0 -78
4 -95 9 -17 5 -50 15 -73 22 -35 10 -45 18 -57 51 -38 92 -8 164 86 208 55 26
142 51 230 65 72 11 117 108 129 279 l9 120 -32 33 c-17 18 -40 33 -50 33 -10
0 -21 6 -24 13 -9 25 -159 12 -176 -16 -5 -8 -13 -8 -32 3 -21 11 -33 11 -68
0 -76 -22 -98 -32 -139 -62 -40 -29 -41 -29 -34 -6 16 57 28 76 61 91 19 10
37 24 40 32 3 8 -1 43 -10 77 -9 38 -12 66 -7 71 13 13 -3 51 -47 111 -45 61
-48 96 -16 159 14 26 22 47 19 47 -3 0 -3 5 1 12 4 7 9 23 10 36 3 29 2 27 38
36 23 6 27 4 23 -8 -8 -21 3 -20 18 0 14 20 100 54 136 54 14 0 40 7 57 16 23
11 36 12 51 5 11 -6 27 -11 35 -11 13 0 14 3 4 19 -14 22 3 51 30 51 8 0 30
11 48 25 18 14 37 25 41 24 4 -1 16 1 26 6 10 4 35 3 56 -4 49 -14 115 -13
166 4 22 7 42 13 44 14 2 1 9 -6 15 -13z m376 -41 c0 -8 -6 -16 -12 -18 -10
-4 -9 -8 2 -16 12 -8 12 -13 2 -23 -14 -14 -15 -9 -16 54 -1 28 2 34 12 26 6
-6 12 -16 12 -23z m350 23 c0 -15 -21 -18 -35 -5 -12 13 -11 15 10 13 14 0 25
-4 25 -8z m150 -62 c0 -3 -4 -8 -10 -11 -5 -3 -10 -1 -10 4 0 6 5 11 10 11 6
0 10 -2 10 -4z m64 -12 c3 -8 2 -12 -4 -9 -6 3 -10 10 -10 16 0 14 7 11 14 -7z
m-1947 -56 c-3 -8 -6 -5 -6 6 -1 11 2 17 5 13 3 -3 4 -12 1 -19z m1528 3 c-3
-6 -11 -11 -17 -11 -6 0 -6 6 2 15 14 17 26 13 15 -4z m-105 -1 c0 -5 -4 -10
-10 -10 -5 0 -10 5 -10 10 0 6 5 10 10 10 6 0 10 -4 10 -10z m21 -33 c-10 -9
-11 -8 -5 6 3 10 9 15 12 12 3 -3 0 -11 -7 -18z m127 -20 c5 -24 -15 -21 -21
4 -3 13 -1 19 6 16 7 -2 13 -11 15 -20z m492 -7 c0 -5 -5 -10 -11 -10 -5 0 -7
5 -4 10 3 6 8 10 11 10 2 0 4 -4 4 -10z m-564 -24 c10 -11 11 -17 3 -22 -6 -3
-15 0 -20 7 -18 29 -7 39 17 15z m198 -42 c9 -24 2 -26 -12 -4 -7 11 -8 20 -3
20 5 0 12 -7 15 -16z m146 -4 c0 -5 -4 -10 -10 -10 -5 0 -10 5 -10 10 0 6 5
10 10 10 6 0 10 -4 10 -10z m-220 -26 c0 -8 -5 -12 -10 -9 -6 4 -8 11 -5 16 9
14 15 11 15 -7z m503 -62 c-3 -12 -9 -19 -14 -16 -5 3 -3 14 3 24 15 24 19 21
11 -8z m-388 8 c3 -5 -1 -10 -9 -10 -9 0 -16 5 -16 10 0 6 4 10 9 10 6 0 13
-4 16 -10z m55 -36 c0 -2 -7 -4 -15 -4 -8 0 -15 4 -15 10 0 5 7 7 15 4 8 -4
15 -8 15 -10z m114 -9 c-4 -8 -8 -15 -10 -15 -2 0 -4 7 -4 15 0 8 4 15 10 15
5 0 7 -7 4 -15z m-299 -55 c-3 -5 -11 -10 -16 -10 -6 0 -7 5 -4 10 3 6 11 10
16 10 6 0 7 -4 4 -10z m85 -66 c0 -2 -7 -4 -15 -4 -8 0 -15 4 -15 10 0 5 7 7
15 4 8 -4 15 -8 15 -10z m105 -4 c-3 -5 -16 -10 -28 -9 -21 0 -21 1 -2 9 28
12 37 12 30 0z m100 0 c3 -5 1 -10 -4 -10 -6 0 -11 5 -11 10 0 6 2 10 4 10 3
0 8 -4 11 -10z m-165 -14 c0 -2 -9 -6 -20 -9 -11 -3 -20 -1 -20 4 0 5 9 9 20
9 11 0 20 -2 20 -4z m30 -20 c0 -3 -4 -8 -10 -11 -5 -3 -10 -1 -10 4 0 6 5 11
10 11 6 0 10 -2 10 -4z m200 -96 c0 -5 -16 -10 -35 -10 -19 0 -35 5 -35 10 0
6 16 10 35 10 19 0 35 -4 35 -10z m-50 -112 c0 -4 -4 -8 -9 -8 -6 0 -12 4 -15
8 -3 5 1 9 9 9 8 0 15 -4 15 -9z m175 -628 c3 -5 -1 -10 -10 -10 -9 0 -13 5
-10 10 3 6 8 10 10 10 2 0 7 -4 10 -10z m-1370 -110 c3 -5 1 -10 -4 -10 -6 0
-11 5 -11 10 0 6 2 10 4 10 3 0 8 -4 11 -10z m-45 -80 c0 -22 -4 -40 -10 -40
-11 0 -14 63 -3 73 11 12 13 8 13 -33z m672 -204 c96 -142 123 -185 134 -213
14 -32 10 -63 -7 -63 -5 0 -9 -6 -9 -14 0 -19 -65 -75 -114 -97 -27 -12 -65
-19 -109 -19 -48 0 -79 -6 -107 -20 -52 -27 -70 -26 -70 4 0 25 11 35 181 167
69 53 80 81 38 94 -19 6 -21 11 -23 50 -1 17 -7 20 -41 18 -22 -1 -59 -5 -82
-9 -36 -5 -43 -3 -43 10 0 27 44 64 89 76 23 6 57 20 74 30 46 27 64 24 89
-14z m-1201 -1368 c1 -7 2 -20 3 -28 0 -8 8 -16 16 -16 8 -1 23 -2 32 -3 11
-1 15 -6 12 -16 -4 -8 -1 -15 4 -15 6 0 16 16 23 35 7 19 16 35 19 35 7 0 30
-106 30 -138 0 -11 9 -36 20 -54 13 -23 19 -50 18 -88 -1 -71 7 -126 19 -142
5 -7 13 -20 16 -28 49 -112 117 -173 193 -173 26 0 49 5 54 12 4 8 16 11 29 6
17 -5 21 -2 21 14 0 29 19 26 30 -5 14 -35 13 -94 -1 -94 -8 0 -8 -4 0 -13 6
-8 12 -43 15 -78 2 -40 12 -81 26 -109 12 -25 26 -53 31 -62 5 -10 9 -25 9
-35 0 -9 8 -25 17 -35 14 -16 15 -23 5 -39 -11 -17 -8 -24 23 -53 38 -36 37
-46 -8 -46 -25 0 -28 -2 -17 -15 7 -8 8 -15 4 -15 -5 0 -15 9 -21 20 -11 16
-10 21 5 29 9 5 14 13 10 17 -4 4 -14 1 -22 -5 -21 -17 -41 -4 -25 15 11 13 9
14 -14 3 -15 -7 -34 -8 -44 -4 -10 5 -21 8 -25 7 -4 -1 -19 6 -35 14 l-28 16
28 -6 c20 -5 27 -3 27 9 0 9 -4 14 -9 10 -5 -3 -12 -1 -16 5 -3 5 -19 10 -36
10 -16 0 -29 5 -29 11 0 7 -10 9 -25 5 -14 -4 -25 -2 -25 3 0 5 -12 12 -27 16
-16 4 -22 10 -15 12 6 3 12 9 12 14 0 5 -11 3 -25 -3 -19 -8 -22 -14 -13 -20
9 -5 10 -8 1 -8 -6 0 -15 5 -18 10 -3 6 -21 10 -38 10 -29 1 -30 2 -14 14 13
10 15 16 7 21 -7 4 -17 2 -23 -4 -14 -14 -30 -14 -22 0 4 6 -2 13 -13 16 -13
3 -18 11 -15 19 3 9 -2 14 -16 14 -12 0 -21 6 -21 15 0 9 -10 15 -22 16 -21 1
-21 2 -3 6 28 7 43 23 22 23 -9 0 -17 5 -17 10 0 6 -17 11 -37 11 -25 1 -30 3
-15 6 15 3 22 10 18 18 -3 8 -1 17 4 20 19 12 11 26 -8 16 -20 -11 -52 2 -33
13 6 4 11 12 11 17 0 6 -5 7 -10 4 -6 -3 -13 0 -16 9 -3 8 -13 12 -22 9 -13
-4 -14 -3 -3 5 7 5 11 14 7 20 -3 6 2 15 11 21 10 6 13 11 7 11 -11 0 -39 49
-35 63 1 5 -4 7 -11 4 -7 -2 -12 -11 -10 -21 2 -9 -1 -16 -6 -16 -14 0 -23 28
-12 35 17 11 11 25 -11 25 -16 0 -20 5 -16 19 4 16 0 19 -22 16 -14 -2 -29 -4
-33 -4 -5 -1 -8 -8 -8 -18 0 -9 -2 -14 -4 -12 -9 8 15 177 35 244 11 39 21 84
23 101 4 35 34 105 50 116 6 4 7 10 4 14 -4 3 3 15 15 25 12 10 18 18 12 19
-18 0 -14 50 4 51 10 0 11 2 4 6 -15 6 -17 23 -3 23 6 0 11 -6 11 -12z m1629
-327 c0 -6 -4 -13 -10 -16 -5 -3 -10 1 -10 9 0 9 5 16 10 16 6 0 10 -4 10 -9z
m-35 -91 c3 -5 -1 -10 -10 -10 -9 0 -13 5 -10 10 3 6 8 10 10 10 2 0 7 -4 10
-10z m-1790 -267 c4 -27 10 -61 15 -78 33 -121 68 -321 74 -426 l4 -64 -9 55
c-33 202 -52 277 -75 308 -14 17 -29 32 -35 32 -5 0 -8 15 -8 33 1 32 1 32 8
4 6 -27 6 -27 19 -7 7 12 8 20 2 20 -5 0 -10 7 -10 16 0 8 4 13 9 10 5 -4 4 7
-2 24 -13 33 -32 42 -24 10 3 -13 0 -20 -9 -20 -19 0 -18 35 1 54 8 8 11 17 6
20 -10 6 9 56 21 56 4 0 10 -21 13 -47z m235 -121 c0 -10 -22 -32 -32 -32 -4
0 -8 9 -8 20 0 13 7 20 20 20 11 0 20 -4 20 -8z m-475 -22 c3 -5 -1 -10 -10
-10 -9 0 -13 5 -10 10 3 6 8 10 10 10 2 0 7 -4 10 -10z m175 0 c0 -5 -4 -10
-10 -10 -5 0 -10 5 -10 10 0 6 5 10 10 10 6 0 10 -4 10 -10z m260 -71 c-5 -16
-7 -36 -4 -44 3 -7 1 -16 -4 -19 -5 -3 -8 -17 -7 -31 2 -14 0 -25 -5 -25 -4 0
-6 -10 -3 -22 3 -17 2 -19 -5 -9 -7 10 -12 6 -17 -20 -6 -28 -9 -30 -15 -15
-7 21 51 227 62 220 3 -2 3 -18 -2 -35z m65 31 c3 -5 -1 -10 -9 -10 -9 0 -16
5 -16 10 0 6 4 10 9 10 6 0 13 -4 16 -10z m1383 -25 c-3 -3 -9 2 -12 12 -6 14
-5 15 5 6 7 -7 10 -15 7 -18z m79 -229 c7 -75 0 -111 -24 -120 -24 -10 -40 11
-68 93 -29 82 -29 114 -1 119 23 5 46 26 47 44 2 34 40 -80 46 -136z m-503
107 c3 -10 10 -25 14 -33 19 -31 42 -91 42 -110 0 -24 -15 -26 -24 -4 -5 13
-8 13 -18 2 -17 -18 -35 -47 -50 -78 -9 -20 -12 -22 -15 -8 -4 18 -32 14 -45
-6 -5 -8 -13 -7 -27 1 -13 8 -22 9 -26 3 -7 -12 -25 -4 -25 10 0 5 15 8 32 6
33 -4 79 14 106 40 11 12 11 14 -2 14 -8 0 -18 -4 -21 -10 -3 -5 -11 -10 -16
-10 -6 0 -8 4 -5 8 2 4 0 14 -5 22 -8 13 -10 13 -18 1 -5 -8 -14 -10 -22 -5
-8 5 -21 7 -31 6 -9 -2 -19 1 -22 6 -2 4 22 14 55 21 54 12 71 23 52 34 -5 2
-3 2 4 1 7 -2 15 2 19 7 4 7 10 7 17 0 15 -15 27 -14 27 3 0 8 6 17 13 20 10
5 10 7 0 12 -7 3 -13 12 -13 20 0 8 -7 17 -15 20 -8 4 -12 10 -9 15 8 14 21
10 28 -8z m-831 -1 c14 -6 12 -10 -15 -19 -29 -11 -31 -11 -15 1 18 14 18 14
0 19 -11 3 -12 5 -3 5 8 0 23 -3 33 -6z m1025 -9 c-24 -49 -33 -63 -40 -63 -5
0 -6 -4 -3 -10 3 -5 -1 -10 -10 -10 -21 0 -11 35 18 68 19 21 43 31 35 15z
m-898 -23 c0 -5 -5 -10 -11 -10 -5 0 -7 5 -4 10 3 6 8 10 11 10 2 0 4 -4 4
-10z m-43 -6 c-3 -3 -12 -4 -19 -1 -8 3 -5 6 6 6 11 1 17 -2 13 -5z m733 -4
c0 -5 -4 -10 -9 -10 -6 0 -13 5 -16 10 -3 6 1 10 9 10 9 0 16 -4 16 -10z m359
-22 c21 -58 42 -130 39 -134 -9 -9 -58 22 -57 36 1 8 0 17 -1 20 -1 3 -4 26
-5 53 -2 50 10 62 24 25z m-399 0 c0 -12 -38 -10 -45 2 -4 6 5 9 19 8 15 -1
26 -6 26 -10z m350 2 c0 -5 -7 -10 -16 -10 -8 0 -12 5 -9 10 3 6 10 10 16 10
5 0 9 -4 9 -10z m-1340 -20 c0 -5 -2 -10 -4 -10 -3 0 -8 5 -11 10 -3 6 -1 10
4 10 6 0 11 -4 11 -10z m450 -10 c0 -5 -4 -10 -10 -10 -5 0 -10 5 -10 10 0 6
5 10 10 10 6 0 10 -4 10 -10z m816 -65 c-3 -8 -1 -15 4 -15 6 0 10 -4 10 -10
0 -5 -7 -7 -15 -4 -8 4 -15 3 -15 0 0 -13 33 -56 42 -56 6 0 19 -11 30 -25 11
-14 25 -25 32 -25 9 0 12 -10 9 -27 -4 -25 -3 -26 8 -9 7 11 13 35 15 54 2 30
16 51 34 52 3 0 16 -21 29 -48 20 -39 25 -67 29 -165 4 -113 4 -119 -21 -156
-28 -41 -83 -63 -99 -39 -6 10 -8 10 -8 1 0 -7 -8 -13 -19 -13 -17 0 -19 11
-19 165 -1 92 -4 170 -7 175 -10 16 -34 11 -73 -15 -43 -29 -112 -34 -167 -11
-50 21 -42 66 12 66 27 0 82 33 138 84 42 38 61 46 51 21z m-1276 -25 c0 -20
-5 -30 -15 -30 -18 0 -18 1 -5 34 13 34 20 33 20 -4z m907 -16 c-3 -3 -12 -4
-19 -1 -8 3 -5 6 6 6 11 1 17 -2 13 -5z m670 -36 c-3 -8 -6 -5 -6 6 -1 11 2
17 5 13 3 -3 4 -12 1 -19z m-709 -7 c10 -6 8 -9 -10 -13 -33 -6 -55 1 -37 13
18 11 30 11 47 0z m-921 -47 c10 -26 -34 -155 -57 -169 -11 -7 -2 21 25 73 12
24 15 45 11 73 -6 39 8 56 21 23z m913 6 c0 -5 -4 -10 -9 -10 -6 0 -13 5 -16
10 -3 6 1 10 9 10 9 0 16 -4 16 -10z m450 -40 c0 -5 -4 -10 -9 -10 -6 0 -13 5
-16 10 -3 6 1 10 9 10 9 0 16 -4 16 -10z m-590 -12 c0 -7 -11 -14 -25 -14 -31
-2 -33 13 -2 19 12 2 23 5 25 6 1 0 2 -5 2 -11z m40 2 c0 -5 -7 -10 -16 -10
-8 0 -12 5 -9 10 3 6 10 10 16 10 5 0 9 -4 9 -10z m63 -11 c-10 -10 -55 0 -48
11 2 4 16 5 30 2 15 -2 23 -8 18 -13z m48 -4 c5 4 9 -2 9 -11 0 -13 -3 -15
-11 -7 -6 6 -18 9 -25 6 -16 -6 -17 -2 -8 22 6 16 8 16 16 1 5 -9 13 -14 19
-11z m-241 -17 c0 -16 -3 -19 -11 -11 -6 6 -8 16 -5 22 11 17 16 13 16 -11z
m30 12 c0 -5 -4 -10 -10 -10 -5 0 -10 5 -10 10 0 6 5 10 10 10 6 0 10 -4 10
-10z m-60 -43 c0 -5 -4 -5 -10 -2 -5 3 -10 14 -10 23 0 15 2 15 10 2 5 -8 10
-19 10 -23z m320 24 c0 -5 -7 -14 -15 -21 -16 -14 -18 -10 -9 14 6 17 24 22
24 7z m-350 -22 c0 -5 -4 -9 -10 -9 -5 0 -10 7 -10 16 0 8 5 12 10 9 6 -3 10
-10 10 -16z m365 -9 c-9 -16 -18 -30 -21 -30 -2 0 2 14 11 30 9 17 18 30 21
30 2 0 -2 -13 -11 -30z m-395 -23 c0 -5 -4 -5 -10 -2 -5 3 -10 14 -10 23 0 15
2 15 10 2 5 -8 10 -19 10 -23z m423 -2 c-24 -32 -38 -32 -17 0 9 14 20 25 26
25 5 0 1 -11 -9 -25z m-453 -10 c20 -24 6 -28 -15 -5 -10 11 -13 20 -8 20 6 0
16 -7 23 -15z m485 -4 c-3 -6 -11 -11 -17 -11 -6 0 -6 6 2 15 14 17 26 13 15
-4z m-504 -23 c18 -20 23 -28 16 -28 -2 0 -14 11 -27 25 -13 14 -20 25 -15 25
4 0 16 -10 26 -22z m239 12 c0 -5 -2 -10 -4 -10 -3 0 -8 5 -11 10 -3 6 -1 10
4 10 6 0 11 -4 11 -10z m300 7 c0 -2 -12 -14 -27 -28 l-28 -24 24 28 c23 25
31 32 31 24z m-560 -42 c20 -24 6 -28 -15 -5 -10 11 -13 20 -8 20 6 0 16 -7
23 -15z m580 7 c0 -4 -15 -16 -32 -26 l-33 -18 28 26 c30 27 37 31 37 18z
m650 -22 c0 -5 -4 -10 -10 -10 -5 0 -10 5 -10 10 0 6 5 10 10 10 6 0 10 -4 10
-10z m-1244 -22 l19 -21 -27 18 c-29 18 -34 25 -20 25 5 0 17 -10 28 -22z
m579 -8 c-10 -11 -21 -18 -23 -15 -3 3 3 12 14 20 27 20 30 18 9 -5z m-469
-27 c-4 -4 -11 -1 -16 7 -16 25 -11 35 7 17 9 -9 13 -20 9 -24z m-130 12 c9
-8 11 -15 6 -15 -5 0 -15 7 -22 15 -7 8 -9 15 -6 15 4 0 14 -7 22 -15z m269
-5 c-28 -12 -37 -12 -30 0 3 6 16 10 28 9 21 0 21 -1 2 -9z m95 -4 c0 -2 -9
-6 -20 -9 -11 -3 -18 -1 -14 4 5 9 34 13 34 5z m-361 -32 c14 -12 -19 -1 -35
12 -18 14 -18 14 6 3 14 -6 27 -13 29 -15z m211 6 c12 -8 11 -10 -7 -10 -12 0
-25 5 -28 10 -8 13 15 13 35 0z m300 0 c0 -5 -2 -10 -4 -10 -3 0 -8 5 -11 10
-3 6 -1 10 4 10 6 0 11 -4 11 -10z m685 -10 c3 -5 1 -10 -4 -10 -6 0 -11 5
-11 10 0 6 2 10 4 10 3 0 8 -4 11 -10z m-1230 -18 c-3 -3 -11 0 -18 7 -9 10
-8 11 6 5 10 -3 15 -9 12 -12z m440 8 c7 -12 -2 -12 -30 0 -19 8 -19 9 2 9 12
1 25 -3 28 -9z m-338 -66 c-3 -3 -12 -4 -19 -1 -8 3 -5 6 6 6 11 1 17 -2 13
-5z m-52 -14 c3 -5 2 -10 -4 -10 -5 0 -13 5 -16 10 -3 6 -2 10 4 10 5 0 13 -4
16 -10z m1245 -2 c0 -5 -23 -8 -51 -8 -27 0 -48 3 -46 8 3 4 26 7 51 7 25 0
46 -3 46 -7z m-2830 -34 c30 -48 21 -51 -12 -3 -15 21 -24 39 -19 39 5 0 19
-16 31 -36z m1745 16 c3 -5 1 -10 -4 -10 -6 0 -11 5 -11 10 0 6 2 10 4 10 3 0
8 -4 11 -10z m942 4 c-3 -3 -12 -4 -19 -1 -8 3 -5 6 6 6 11 1 17 -2 13 -5z"/>
<path d="M3690 4461 c-16 -8 -30 -18 -30 -23 0 -4 -7 -8 -16 -8 -28 0 -96 -62
-115 -105 -18 -40 -19 -102 -2 -114 13 -10 53 -69 53 -79 0 -15 71 -80 105
-96 18 -9 53 -16 78 -16 25 0 49 -4 52 -10 3 -5 31 -10 62 -10 45 0 56 3 60
18 3 12 21 23 52 31 51 13 85 43 78 69 -4 14 -6 13 -12 -5 -4 -13 -15 -23 -25
-23 -10 0 -26 -3 -36 -7 -13 -5 -15 -3 -9 7 5 8 3 11 -4 9 -7 -3 -12 -9 -11
-14 2 -13 -29 -23 -72 -24 -27 -1 -38 -5 -38 -16 0 -17 -16 -20 -24 -6 -4 5 0
12 6 15 7 4 -2 4 -21 1 -34 -5 -34 -5 -16 16 13 14 26 18 40 14 30 -10 66 -7
84 8 32 25 59 35 141 52 122 26 180 61 180 109 0 46 -77 107 -154 122 -22 4
-51 13 -65 20 -15 8 -27 10 -29 4 -3 -8 -27 -7 -91 6 -18 4 -21 8 -12 17 6 6
11 16 11 21 0 6 -5 5 -12 -2 -18 -18 -31 -14 -25 8 3 10 2 19 -2 18 -3 0 -8 0
-11 2 -24 9 -145 2 -170 -9z m230 -111 c0 -5 -7 -10 -15 -10 -8 0 -15 5 -15
10 0 6 7 10 15 10 8 0 15 -4 15 -10z m99 -80 c54 -25 50 -32 -9 -19 -45 11
-120 8 -152 -6 -12 -5 -18 -3 -18 5 0 42 105 53 179 20z m-189 -145 c10 -12
10 -15 -4 -15 -9 0 -16 7 -16 15 0 8 2 15 4 15 2 0 9 -7 16 -15z"/>
<path d="M3332 3761 c-17 -48 -14 -63 4 -22 8 19 13 39 11 45 -2 6 -9 -5 -15
-23z"/>
<path d="M2670 1432 c0 -5 7 -13 16 -16 10 -4 14 -1 12 6 -5 15 -28 23 -28 10z"/>
<path d="M2745 1380 c3 -5 15 -10 26 -10 10 0 19 5 19 10 0 6 -12 10 -26 10
-14 0 -23 -4 -19 -10z"/>
<path d="M2988 953 c7 -3 16 -2 19 1 4 3 -2 6 -13 5 -11 0 -14 -3 -6 -6z"/>
<path d="M3130 929 c0 -5 5 -7 10 -4 6 3 10 8 10 11 0 2 -4 4 -10 4 -5 0 -10
-5 -10 -11z"/>
<path d="M3098 923 c7 -3 16 -2 19 1 4 3 -2 6 -13 5 -11 0 -14 -3 -6 -6z"/>
<path d="M3155 890 c3 -5 11 -10 16 -10 6 0 7 5 4 10 -3 6 -11 10 -16 10 -6 0
-7 -4 -4 -10z"/>
<path d="M3317 5669 c7 -7 15 -10 18 -7 3 3 -2 9 -12 12 -14 6 -15 5 -6 -5z"/>
<path d="M3652 5669 c2 -7 14 -19 26 -27 20 -13 22 -13 22 8 0 20 2 21 17 9
14 -12 16 -12 11 1 -3 9 -20 16 -42 18 -26 2 -37 -1 -34 -9z"/>
<path d="M3168 5653 c6 -2 18 -2 25 0 6 3 1 5 -13 5 -14 0 -19 -2 -12 -5z"/>
<path d="M2980 5610 c0 -5 7 -10 15 -10 8 0 15 5 15 10 0 6 -7 10 -15 10 -8 0
-15 -4 -15 -10z"/>
<path d="M2785 5520 c3 -5 11 -10 16 -10 6 0 7 5 4 10 -3 6 -11 10 -16 10 -6
0 -7 -4 -4 -10z"/>
<path d="M2765 5500 c3 -5 8 -10 11 -10 2 0 4 5 4 10 0 6 -5 10 -11 10 -5 0
-7 -4 -4 -10z"/>
<path d="M4070 5449 c0 -5 5 -7 10 -4 6 3 10 8 10 11 0 2 -4 4 -10 4 -5 0 -10
-5 -10 -11z"/>
<path d="M2446 4338 c3 -5 10 -6 15 -3 13 9 11 12 -6 12 -8 0 -12 -4 -9 -9z"/>
<path d="M4870 2680 c-6 -11 -7 -20 -2 -20 6 0 12 9 15 20 3 11 3 20 1 20 -2
0 -8 -9 -14 -20z"/>
<path d="M4835 2340 c10 -11 20 -20 23 -20 3 0 -3 9 -13 20 -10 11 -20 20 -23
20 -3 0 3 -9 13 -20z"/>
<path d="M4791 2303 c7 -12 15 -20 18 -17 3 2 -3 12 -13 22 -17 16 -18 16 -5
-5z"/>
<path d="M4785 2260 c10 -11 20 -20 22 -20 2 0 -1 9 -7 20 -6 11 -16 20 -22
20 -6 0 -3 -9 7 -20z"/>
<path d="M4762 2240 c12 -19 28 -27 28 -14 0 7 -27 34 -34 34 -4 0 -1 -9 6
-20z"/>
<path d="M4701 2235 c18 -40 33 -65 41 -65 14 0 9 11 -19 44 -14 17 -24 27
-22 21z"/>
<path d="M4762 2191 c13 -15 24 -27 26 -26 6 6 -30 55 -40 55 -5 0 1 -13 14
-29z"/>
<path d="M4696 2181 c9 -17 20 -31 25 -31 12 0 -4 32 -25 49 -14 12 -14 10 0
-18z"/>
<path d="M4670 2175 c0 -12 29 -62 44 -74 11 -9 10 -3 -4 28 -18 36 -40 62
-40 46z"/>
<path d="M4656 2140 c8 -30 35 -72 41 -66 3 3 -7 24 -22 48 -17 27 -24 34 -19
18z"/>
<path d="M4756 2147 c3 -10 9 -15 12 -12 3 3 0 11 -7 18 -10 9 -11 8 -5 -6z"/>
<path d="M6547 2120 c-4 -16 -9 -119 -13 -229 -4 -110 -10 -200 -13 -199 -19
2 -21 -4 -7 -18 12 -11 13 -20 6 -34 -5 -10 -7 -25 -4 -34 8 -21 -15 -126 -28
-126 -7 0 -6 -5 1 -14 9 -10 8 -15 -3 -19 -9 -4 -12 -15 -9 -32 4 -16 0 -31
-9 -38 -22 -17 -31 -47 -12 -40 7 3 14 0 14 -6 0 -7 -7 -14 -15 -17 -8 -4 -15
-17 -15 -29 0 -13 -5 -27 -10 -30 -8 -5 -7 -12 2 -23 10 -12 10 -16 1 -19 -15
-5 -17 -59 -3 -68 6 -3 10 2 11 12 0 11 3 13 6 5 3 -7 0 -19 -7 -27 -6 -8 -9
-19 -6 -24 4 -5 2 -12 -3 -16 -6 -3 -8 -12 -4 -20 3 -8 0 -15 -6 -15 -16 0
-14 -16 4 -34 8 -8 15 -19 15 -25 0 -6 -7 -11 -15 -11 -9 0 -15 -9 -15 -24 0
-13 -2 -31 -5 -39 -5 -10 2 -13 27 -12 17 1 34 7 36 14 2 6 9 17 16 24 7 7 11
18 8 25 -2 7 1 19 8 27 12 15 5 55 -10 55 -5 0 -7 6 -4 14 3 8 1 17 -5 21 -6
3 -11 14 -11 23 1 15 2 15 15 -2 14 -18 15 -18 24 8 15 39 20 95 11 128 -5 15
-5 30 0 33 21 13 31 152 34 460 2 182 7 347 10 368 8 44 -9 51 -17 7z"/>
<path d="M4730 2131 c0 -5 5 -13 10 -16 6 -3 10 -2 10 4 0 5 -4 13 -10 16 -5
3 -10 2 -10 -4z"/>
<path d="M6366 2023 c-14 -37 -37 -104 -51 -148 -14 -44 -28 -87 -32 -95 -9
-22 -10 -31 -29 -180 -9 -74 -19 -142 -22 -150 -3 -8 -6 -18 -6 -22 -1 -5 -5
-7 -11 -6 -5 0 -9 10 -7 20 2 13 -4 21 -18 25 -17 5 -20 11 -15 32 5 20 4 23
-6 14 -8 -8 -18 -9 -31 -2 -23 13 -23 29 1 29 10 0 21 6 24 13 3 9 -4 12 -28
9 -32 -4 -33 -3 -39 42 -4 25 -4 50 -1 56 3 5 1 10 -5 10 -6 0 -8 5 -5 10 4 6
-1 23 -11 38 -16 25 -18 25 -25 7 -7 -18 -8 -17 -9 5 -4 90 -43 261 -55 248
-3 -2 0 -31 5 -64 11 -64 22 -250 14 -221 -3 9 -9 17 -14 17 -5 0 -7 7 -4 15
4 10 0 15 -15 15 -11 0 -26 9 -33 20 -15 23 -33 27 -24 5 3 -8 2 -14 -2 -12
-4 1 -8 -2 -9 -8 -1 -5 7 -8 19 -7 19 3 37 -12 38 -31 0 -5 -15 -7 -32 -5 -39
4 -68 46 -43 61 8 4 15 15 15 23 0 12 -4 12 -20 2 -23 -14 -38 -4 -22 15 11
12 37 117 33 126 -2 2 2 7 7 10 6 3 12 15 14 26 2 15 -2 20 -19 19 -13 0 -23
3 -23 8 0 4 5 8 12 8 6 0 9 2 7 5 -11 10 -49 -9 -49 -24 0 -9 -4 -21 -9 -26
-5 -6 -12 -53 -16 -105 -3 -52 -11 -112 -17 -132 -8 -29 -8 -41 1 -52 11 -13
7 -19 -21 -36 l-33 -20 35 -1 c21 -1 27 -3 16 -6 -28 -7 -49 -31 -42 -49 3 -9
-1 -22 -10 -31 -13 -14 -13 -17 1 -32 20 -23 19 -37 -2 -20 -15 12 -16 12 -10
-3 4 -12 0 -19 -15 -24 -17 -5 -18 -8 -7 -16 11 -7 11 -11 2 -15 -7 -2 -13 -9
-13 -14 0 -6 -9 -19 -20 -31 -22 -24 -26 -38 -9 -38 6 0 3 -7 -5 -16 -9 -8
-16 -21 -16 -29 0 -7 -14 -16 -30 -20 -17 -4 -28 -11 -24 -16 3 -5 15 -7 26
-3 14 4 18 2 14 -5 -4 -6 -16 -11 -26 -11 -24 0 -35 -17 -14 -22 10 -2 -4 -17
-42 -45 -42 -31 -53 -43 -39 -44 15 0 16 -2 5 -6 -8 -3 -18 -11 -22 -17 -5 -8
-13 -7 -28 2 -27 17 -32 15 -25 -8 5 -15 2 -20 -10 -20 -10 0 -15 -5 -12 -14
4 -11 1 -11 -19 -2 -13 6 -24 14 -24 19 0 13 -43 7 -61 -9 -16 -14 -23 -15
-49 -4 -23 10 -34 10 -43 1 -8 -8 -6 -11 11 -11 12 0 22 -5 22 -11 0 -6 -9 -8
-20 -4 -12 4 -20 2 -20 -5 0 -6 15 -10 35 -8 19 1 37 -1 41 -5 4 -4 0 -7 -9
-7 -9 0 -17 -5 -17 -11 0 -6 9 -9 19 -6 33 8 40 -6 47 -101 9 -126 31 -125 32
3 1 54 4 63 31 87 54 49 128 27 150 -45 25 -81 24 -131 -5 -196 -15 -33 -31
-61 -35 -61 -4 0 -10 18 -14 41 -4 22 -11 39 -16 37 -4 -2 -19 -23 -32 -48
-16 -31 -31 -46 -48 -48 -35 -5 -44 -18 -44 -65 0 -41 -1 -42 -35 -42 -31 0
-35 3 -38 30 -2 17 -11 38 -20 49 -16 17 -17 16 -22 -35 l-5 -54 -35 0 c-29 0
-36 4 -38 23 -2 13 -9 21 -15 19 -7 -3 -24 7 -39 21 l-27 25 10 -37 c13 -47
-2 -68 -45 -64 -28 3 -31 7 -33 38 -3 61 -14 164 -20 180 -4 12 -7 11 -14 -5
-8 -17 -8 -15 -4 7 3 14 1 37 -4 50 -9 21 -10 20 -11 -12 -1 -19 -5 -46 -10
-60 l-7 -25 -8 28 c-4 16 -5 53 -2 82 3 33 1 57 -6 65 -9 10 -9 11 2 5 11 -6
12 -2 7 21 -4 16 -11 31 -15 34 -5 3 -11 12 -14 20 -4 12 -6 11 -6 -3 -1 -9
-4 -16 -8 -16 -30 5 -46 -5 -59 -36 -15 -38 -15 -38 -89 -26 -62 11 -72 7 -89
-34 -25 -59 -87 -116 -163 -152 -40 -18 -73 -37 -73 -41 0 -21 29 -32 86 -32
55 0 64 3 81 26 l19 25 46 -20 c55 -23 56 -26 62 -161 4 -81 8 -97 25 -111 26
-21 27 -36 2 -44 -12 -4 -21 -19 -25 -47 -4 -22 -5 -42 -4 -43 2 -1 29 4 62
12 40 11 68 12 90 6 l31 -9 3 -108 3 -108 24 4 c13 3 48 1 77 -4 149 -26 246
-31 612 -35 316 -3 401 -1 408 9 4 7 8 28 8 46 0 18 7 46 15 61 13 26 13 30
-1 42 -19 15 -75 134 -78 163 -1 5 -10 12 -21 17 -17 6 -17 8 -2 8 18 1 24 26
8 35 -4 3 -11 20 -15 37 -3 18 -20 45 -37 60 -29 26 -30 29 -16 49 14 21 15
20 52 -22 21 -24 35 -37 31 -30 -15 26 16 10 60 -30 47 -44 56 -59 69 -116 5
-24 3 -32 -8 -32 -7 0 -22 -9 -31 -19 -17 -18 -16 -19 2 -25 15 -5 18 -13 14
-29 -3 -13 -1 -18 4 -14 5 5 9 12 9 15 3 41 62 92 104 92 25 0 73 -46 151
-145 55 -70 67 -83 114 -118 20 -15 36 -34 36 -42 0 -13 31 -15 198 -14 108 0
190 3 182 6 -8 3 -30 12 -49 19 l-33 14 41 34 c23 19 66 44 97 56 103 38 372
62 454 41 19 -5 62 -12 94 -15 69 -7 129 -42 217 -129 27 -26 49 -35 49 -19 0
5 -22 28 -49 51 -27 24 -47 49 -45 55 4 10 -33 34 -81 51 -11 4 -51 11 -90 16
-150 19 -251 21 -381 6 -151 -18 -236 -50 -293 -111 -33 -34 -61 -47 -61 -27
0 5 34 45 75 88 41 43 101 119 134 168 62 95 141 182 201 220 19 12 102 45
183 73 130 46 158 52 230 53 45 0 90 4 100 8 18 6 18 7 0 23 -22 20 -126 42
-159 34 -28 -7 -32 9 -6 23 13 7 41 5 88 -5 38 -8 85 -12 106 -9 22 4 70 -2
126 -16 88 -21 130 -21 116 2 -10 16 -121 65 -167 73 -50 9 -288 9 -311 0 -14
-5 -17 -4 -12 4 4 7 3 12 -3 12 -5 0 -13 -4 -16 -10 -3 -5 -13 -10 -21 -10 -8
0 -12 5 -9 10 3 6 -1 10 -9 10 -8 0 -18 -4 -21 -10 -9 -14 -62 -12 -68 3 -3 9
-9 9 -26 -1 -17 -10 -25 -10 -43 0 -13 7 -26 17 -29 22 -4 5 -11 6 -17 2 -5
-3 -23 1 -38 9 -30 15 -43 10 -74 -29 -35 -44 -104 -106 -119 -106 -6 0 -14
-7 -17 -15 -3 -8 -27 -25 -52 -37 -26 -12 -49 -24 -51 -25 -2 -1 2 -9 8 -17
11 -13 8 -16 -13 -22 -14 -3 -23 -10 -20 -15 3 -5 0 -9 -6 -9 -6 0 -15 -12
-21 -26 -5 -15 -12 -24 -15 -21 -3 3 -15 -4 -27 -14 -45 -40 -53 -47 -77 -59
-13 -7 -46 -37 -73 -66 -27 -30 -53 -52 -59 -51 -12 2 -47 -86 -48 -120 0 -13
-4 -23 -10 -23 -13 0 -13 -3 7 107 10 60 21 93 29 93 25 0 26 40 2 76 -29 43
-47 48 -128 35 -35 -6 -66 -8 -69 -5 -7 7 19 23 49 30 103 23 360 116 459 167
132 68 181 103 208 150 40 68 -4 88 -92 41 -95 -50 -125 -55 -267 -44 -10 1
-18 6 -18 11 0 6 -9 8 -19 4 -11 -3 -22 -1 -25 4 -4 6 -14 7 -23 4 -11 -4 -14
-3 -9 5 5 9 0 9 -19 2 -57 -22 -155 -7 -155 23 0 14 -45 37 -72 37 -12 0 -18
7 -18 21 0 17 3 19 14 10 16 -13 32 2 21 19 -3 6 2 10 12 11 10 0 13 3 7 5
-18 7 -64 -14 -64 -30 0 -7 -9 -16 -20 -19 -12 -3 -20 -14 -20 -25 0 -22 -15
-38 -23 -25 -3 5 5 46 18 93 58 216 89 366 104 496 9 73 60 194 102 240 16 17
17 23 6 32 -24 21 -75 -22 -103 -86 -56 -126 -99 -206 -102 -186 -7 50 63 380
114 537 32 98 25 112 -10 20z m-496 -333 c0 -5 -4 -10 -10 -10 -5 0 -10 5 -10
10 0 6 5 10 10 10 6 0 10 -4 10 -10z m210 6 c0 -3 -4 -8 -10 -11 -5 -3 -10 -1
-10 4 0 6 5 11 10 11 6 0 10 -2 10 -4z m-60 -76 c0 -5 -5 -10 -11 -10 -5 0 -7
5 -4 10 3 6 8 10 11 10 2 0 4 -4 4 -10z m173 -174 c-6 -24 -12 -30 -20 -20 -4
6 -17 16 -28 22 -17 9 -15 10 15 8 19 -1 34 -6 33 -10z m-168 -46 c3 -5 1 -10
-4 -10 -6 0 -11 5 -11 10 0 6 2 10 4 10 3 0 8 -4 11 -10z m-634 -361 c14 -17
16 -24 6 -33 -24 -25 -51 -23 -80 6 l-28 28 25 0 c13 0 26 -3 29 -7 2 -5 3 -3
1 4 -7 29 22 30 47 2z m84 12 c-3 -6 1 -14 9 -18 10 -6 2 -9 -24 -9 l-40 -1
21 18 c23 20 44 26 34 10z m49 -7 c5 -14 4 -15 -9 -4 -17 14 -19 20 -6 20 5 0
12 -7 15 -16z m539 -9 c-3 -9 -8 -14 -10 -11 -3 3 -2 9 2 15 9 16 15 13 8 -4z
m-259 -145 c-6 -69 -32 -163 -44 -155 -5 3 -5 18 0 36 5 16 5 40 1 51 -6 17
-9 9 -14 -32 -4 -34 -14 -61 -27 -74 l-20 -20 0 24 c0 40 30 281 36 291 3 5
10 9 15 9 6 0 7 -4 4 -10 -13 -21 11 -9 25 13 14 21 15 20 21 -28 4 -27 5 -75
3 -105z m-124 94 c0 -14 -5 -34 -11 -45 -5 -11 -19 -61 -30 -112 -19 -87 -32
-118 -44 -105 -3 3 1 23 9 44 11 33 11 44 1 65 -8 14 -15 59 -16 99 l-2 75 39
5 c49 7 54 5 54 -26z m357 -66 c-3 -8 -6 -5 -6 6 -1 11 2 17 5 13 3 -3 4 -12
1 -19z m-347 -8 c0 -25 -21 -70 -33 -70 -5 0 -6 8 -2 18 3 9 9 29 12 45 6 31
23 37 23 7z m163 -99 c-9 -64 -23 -37 -22 42 l0 72 14 -37 c8 -21 11 -54 8
-77z m-162 -27 c-13 -57 -25 -63 -34 -18 -3 17 3 40 16 62 26 44 33 26 18 -44z
m118 -26 c-1 -18 1 -40 5 -50 4 -9 6 -31 4 -50 -2 -28 -7 -33 -28 -33 -22 0
-25 5 -28 37 -2 27 3 43 17 57 12 12 21 32 21 46 0 14 3 25 6 25 3 0 5 -15 3
-32z m-68 -98 c-5 -39 -9 -45 -32 -48 -24 -3 -27 1 -33 44 -7 54 -2 66 18 39
13 -18 14 -18 27 3 19 31 28 15 20 -38z m-171 35 c0 -8 -4 -15 -10 -15 -5 0
-10 7 -10 15 0 8 5 15 10 15 6 0 10 -7 10 -15z m70 -4 c0 -11 5 -23 10 -26 6
-3 10 -19 10 -36 0 -37 -20 -39 -21 -1 -2 26 -2 26 -6 2 -3 -14 -9 -29 -14
-34 -11 -12 -12 36 -3 83 7 34 24 42 24 12z m232 -22 c-9 -11 -20 -19 -24 -19
-14 0 -9 19 10 38 22 23 35 6 14 -19z m-922 6 c0 -9 6 -18 13 -20 18 -8 19
-122 0 -129 -17 -7 -20 2 -27 92 -4 45 -2 72 4 72 5 0 10 -7 10 -15z m510 -10
c0 -17 31 -28 44 -15 13 13 43 13 51 0 8 -13 -22 -67 -44 -80 -35 -18 -68 -11
-95 21 -31 37 -33 49 -6 49 13 0 22 9 26 25 6 25 24 25 24 0z m-657 -43 c-5
-12 -7 -12 -15 2 -11 20 1 44 12 25 5 -6 6 -19 3 -27z m8 -146 c0 -42 -5 -84
-10 -93 -8 -15 -11 -15 -12 -3 -3 28 2 125 7 153 9 46 15 24 15 -57z"/>
<path d="M5360 1032 c0 -12 19 -26 26 -19 2 2 -2 10 -11 17 -9 8 -15 8 -15 2z"/>
<path d="M5165 1660 c-3 -5 1 -10 9 -10 9 0 16 5 16 10 0 6 -4 10 -9 10 -6 0
-13 -4 -16 -10z"/>
<path d="M1847 1534 c-15 -16 -7 -81 13 -99 30 -27 34 -12 13 50 -10 31 -22
53 -26 49z"/>
<path d="M4368 1523 c7 -3 16 -2 19 1 4 3 -2 6 -13 5 -11 0 -14 -3 -6 -6z"/>
<path d="M1340 1360 c-14 -5 -45 -14 -70 -22 -25 -7 -59 -25 -76 -40 -17 -16
-36 -28 -41 -28 -18 0 -88 -59 -106 -89 l-18 -30 39 -10 c80 -22 99 -23 130
-7 17 9 44 16 61 16 16 0 42 5 57 10 14 6 61 11 104 12 62 1 85 -3 121 -21 52
-27 117 -87 167 -156 20 -27 58 -75 84 -106 29 -34 50 -69 52 -87 3 -17 12
-46 21 -65 9 -19 15 -41 14 -49 -4 -18 28 -88 40 -88 5 0 12 -9 16 -19 6 -21
55 -35 69 -20 6 6 6 9 -2 9 -6 0 -9 7 -6 15 5 11 2 13 -10 9 -9 -3 -16 -1 -16
5 0 6 5 11 10 11 18 0 10 29 -10 35 -11 3 -20 11 -20 16 0 13 24 11 38 -3 6
-6 15 -8 19 -4 4 4 -6 18 -22 32 -24 21 -27 27 -15 34 8 6 18 10 23 10 4 0 7
5 7 10 0 7 -7 7 -21 0 -11 -7 -24 -8 -27 -4 -4 4 -1 9 6 11 18 7 15 23 -5 23
-14 0 -14 2 2 20 15 17 16 20 3 15 -9 -4 -20 0 -24 7 -12 19 -12 62 0 70 5 4
-2 12 -17 19 -21 9 -25 17 -21 35 5 21 -27 83 -48 92 -5 2 -8 12 -8 23 0 10
-9 24 -20 31 -11 7 -20 17 -20 21 0 16 -96 110 -150 147 -30 20 -77 47 -105
59 -27 12 -58 26 -67 31 -10 6 -33 10 -52 10 -19 0 -38 5 -41 10 -7 11 -10 11
-45 0z m630 -724 c0 -3 -4 -8 -10 -11 -5 -3 -10 -1 -10 4 0 6 5 11 10 11 6 0
10 -2 10 -4z"/>
<path d="M5395 1250 c-3 -5 1 -10 9 -10 9 0 16 5 16 10 0 6 -4 10 -9 10 -6 0
-13 -4 -16 -10z"/>
<path d="M5260 1240 c-22 -7 -21 -8 13 -9 20 -1 37 4 37 9 0 11 -14 11 -50 0z"/>
<path d="M5350 1226 c0 -9 5 -16 10 -16 6 0 10 4 10 9 0 6 -4 13 -10 16 -5 3
-10 -1 -10 -9z"/>
<path d="M5397 1223 c-4 -3 -7 -11 -7 -17 0 -6 5 -5 12 2 6 6 9 14 7 17 -3 3
-9 2 -12 -2z"/>
<path d="M5317 1214 c-11 -11 3 -24 26 -23 15 0 17 2 7 6 -8 3 -18 10 -21 15
-3 4 -8 5 -12 2z"/>
<path d="M4836 1159 c-4 -23 -5 -44 -2 -46 2 -2 7 14 11 37 4 23 5 43 2 46 -2
3 -7 -14 -11 -37z"/>
<path d="M5256 1191 c-14 -5 -16 -10 -7 -15 15 -9 41 -1 41 14 0 11 -7 12 -34
1z"/>
<path d="M5177 1176 c-21 -16 -22 -26 -2 -26 8 0 15 5 15 11 0 5 5 7 10 4 6
-3 10 -2 10 4 0 17 -14 20 -33 7z"/>
<path d="M4779 1163 c-13 -16 -12 -17 4 -4 16 13 21 21 13 21 -2 0 -10 -8 -17
-17z"/>
<path d="M5307 1166 c-4 -10 -1 -13 8 -9 8 3 12 9 9 14 -7 12 -11 11 -17 -5z"/>
<path d="M5350 1170 c-13 -8 -12 -10 3 -10 9 0 17 5 17 10 0 12 -1 12 -20 0z"/>
<path d="M4875 1150 c-3 -6 1 -7 9 -4 18 7 21 14 7 14 -6 0 -13 -4 -16 -10z"/>
<path d="M5220 1150 c0 -5 5 -10 11 -10 5 0 7 5 4 10 -3 6 -8 10 -11 10 -2 0
-4 -4 -4 -10z"/>
<path d="M5075 1141 c-3 -5 -1 -12 5 -16 5 -3 10 1 10 9 0 18 -6 21 -15 7z"/>
<path d="M5271 1133 c10 -17 35 -20 109 -14 23 1 23 2 6 12 -11 7 -21 8 -25 2
-7 -12 -81 -4 -81 8 0 5 -5 9 -10 9 -7 0 -6 -6 1 -17z"/>
<path d="M4078 1123 c7 -3 16 -2 19 1 4 3 -2 6 -13 5 -11 0 -14 -3 -6 -6z"/>
<path d="M4745 1120 c-3 -6 1 -7 9 -4 18 7 21 14 7 14 -6 0 -13 -4 -16 -10z"/>
<path d="M5105 1121 c-10 -18 36 -24 53 -7 15 15 14 16 -15 16 -18 0 -34 -4
-38 -9z"/>
<path d="M5190 1120 c-13 -8 -12 -10 3 -10 9 0 17 5 17 10 0 12 -1 12 -20 0z"/>
<path d="M5235 1109 c-12 -19 5 -23 22 -6 16 16 16 17 1 17 -9 0 -20 -5 -23
-11z"/>
<path d="M4783 1095 c-3 -9 -3 -18 -1 -21 3 -3 8 4 11 16 6 23 -1 27 -10 5z"/>
<path d="M5065 1091 c-6 -11 9 -23 19 -14 9 9 7 23 -3 23 -6 0 -12 -4 -16 -9z"/>
<path d="M4816 1074 c-4 -9 -4 -19 -1 -22 2 -3 7 3 11 12 4 9 4 19 1 22 -2 3
-7 -3 -11 -12z"/>
<path d="M5158 1083 c7 -3 16 -2 19 1 4 3 -2 6 -13 5 -11 0 -14 -3 -6 -6z"/>
<path d="M4180 1060 c-6 -11 -8 -20 -6 -20 3 0 10 9 16 20 6 11 8 20 6 20 -3
0 -10 -9 -16 -20z"/>
<path d="M4852 1045 c-11 -12 -10 -15 3 -15 8 0 15 7 15 15 0 18 -2 18 -18 0z"/>
<path d="M4880 1050 c0 -5 5 -10 11 -10 5 0 7 5 4 10 -3 6 -8 10 -11 10 -2 0
-4 -4 -4 -10z"/>
<path d="M5032 1048 c2 -6 10 -14 16 -16 7 -2 10 2 6 12 -7 18 -28 22 -22 4z"/>
<path d="M5082 1051 c-26 -16 16 -21 45 -6 l28 15 -30 0 c-16 0 -36 -4 -43 -9z"/>
<path d="M6378 1053 c7 -3 16 -2 19 1 4 3 -2 6 -13 5 -11 0 -14 -3 -6 -6z"/>
<path d="M5160 1040 c-14 -4 -19 -8 -12 -9 18 -2 14 -28 -5 -33 -10 -3 -39 -4
-66 -4 -26 1 -47 -4 -47 -9 0 -11 114 -11 158 0 14 3 22 1 23 -7 1 -7 2 -17 4
-23 1 -5 3 -29 3 -53 1 -26 6 -41 12 -37 6 3 10 1 10 -4 0 -6 -4 -11 -10 -11
-5 0 -10 -4 -10 -10 0 -5 8 -10 19 -10 17 0 18 8 17 85 0 47 -4 85 -8 85 -5 0
-8 -8 -9 -17 0 -14 -2 -13 -9 4 -7 16 -15 20 -32 16 -22 -5 -22 -5 -4 9 10 8
16 20 12 26 -8 13 -10 13 -46 2z"/>
<path d="M4817 1033 c-4 -7 1 -17 12 -22 25 -14 31 -14 31 -1 0 6 -6 10 -14
10 -8 0 -16 5 -18 12 -3 9 -6 9 -11 1z"/>
<path d="M4928 1033 c7 -3 16 -2 19 1 4 3 -2 6 -13 5 -11 0 -14 -3 -6 -6z"/>
<path d="M5018 1028 c15 -15 94 -26 118 -17 14 6 8 8 -21 10 -22 1 -47 2 -57
3 -9 1 -20 4 -24 9 -4 4 -12 7 -18 7 -6 0 -6 -4 2 -12z"/>
<path d="M4634 1015 c-4 -8 -11 -12 -17 -8 -5 3 -7 1 -4 -5 9 -13 -2 -44 -13
-37 -5 3 -12 0 -16 -6 -4 -7 -3 -9 4 -5 6 3 14 1 17 -5 5 -6 17 6 31 31 27 48
28 50 14 50 -6 0 -13 -7 -16 -15z"/>
<path d="M5000 995 c0 -9 -6 -12 -15 -9 -8 4 -15 1 -15 -5 0 -6 7 -11 15 -11
17 0 35 -30 35 -62 0 -18 2 -20 10 -8 14 22 12 49 -5 66 -8 8 -12 21 -9 29 4
8 1 15 -5 15 -6 0 -11 -7 -11 -15z"/>
<path d="M6300 999 c0 -5 5 -7 10 -4 6 3 10 8 10 11 0 2 -4 4 -10 4 -5 0 -10
-5 -10 -11z"/>
<path d="M4935 980 c3 -5 10 -10 16 -10 5 0 9 5 9 10 0 6 -7 10 -16 10 -8 0
-12 -4 -9 -10z"/>
<path d="M5101 814 c-16 -97 -20 -149 -14 -155 7 -7 13 4 17 34 4 24 15 52 24
62 14 15 16 34 14 104 -2 47 -7 89 -11 93 -4 4 -17 -58 -30 -138z m22 -34 c-3
-12 -8 -19 -11 -16 -5 6 5 36 12 36 2 0 2 -9 -1 -20z"/>
<path d="M5450 835 c0 -41 4 -75 9 -75 4 0 6 11 3 25 -2 15 0 25 7 25 7 0 10
-4 7 -8 -2 -4 -1 -14 5 -22 6 -11 9 -5 9 20 0 61 -12 110 -26 110 -11 0 -14
-18 -14 -75z"/>
<path d="M5356 771 c-9 -13 -10 -100 -2 -108 2 -3 11 10 20 28 9 18 12 35 7
38 -5 3 -11 17 -13 31 -2 19 -5 22 -12 11z"/>
<path d="M5132 716 c-14 -32 -13 -39 7 -27 7 5 11 19 9 32 -3 23 -3 23 -16 -5z"/>
<path d="M5250 696 c0 -14 5 -28 10 -31 6 -4 10 7 10 24 0 17 -4 31 -10 31 -5
0 -10 -11 -10 -24z"/>
<path d="M7750 691 c8 -6 26 -11 40 -11 14 0 55 -15 92 -34 63 -32 96 -34 86
-5 -2 7 -22 14 -43 16 -21 1 -54 8 -74 16 -48 19 -122 32 -101 18z"/>
<path d="M5130 656 c-14 -18 -6 -50 13 -44 15 6 22 37 10 49 -6 6 -15 4 -23
-5z"/>
<path d="M560 613 c-48 -8 -137 -45 -162 -66 -35 -30 -88 -116 -82 -132 6 -15
42 3 124 61 25 18 77 45 115 61 60 24 84 28 165 28 86 0 101 -3 162 -32 75
-35 246 -143 341 -215 69 -52 91 -56 31 -6 -22 18 -58 52 -81 76 -24 23 -46
42 -51 42 -4 0 -14 9 -22 20 -8 11 -20 20 -28 20 -7 0 -11 3 -8 8 19 32 -120
98 -269 128 -66 13 -180 17 -235 7z"/>
<path d="M5047 603 c-4 -3 -7 -11 -7 -17 0 -6 5 -5 12 2 6 6 9 14 7 17 -3 3
-9 2 -12 -2z"/>
<path d="M7404 569 c-3 -6 -4 -12 -2 -14 1 -2 46 -5 99 -7 76 -3 96 -1 92 9
-6 16 -29 17 -39 2 -5 -8 -9 -8 -14 1 -9 15 -127 23 -136 9z"/>
<path d="M7618 563 c6 -2 18 -2 25 0 6 3 1 5 -13 5 -14 0 -19 -2 -12 -5z"/>
<path d="M7939 564 c-1 -5 -1 -13 0 -17 1 -4 -3 -16 -8 -26 -13 -24 6 -46 27
-29 10 9 15 9 22 -2 11 -18 3 -31 -15 -23 -8 3 -15 0 -15 -6 0 -6 3 -11 8 -11
4 0 13 -15 21 -32 8 -18 19 -36 25 -40 6 -4 11 -11 11 -15 1 -16 26 -53 35
-53 6 0 10 19 10 43 0 43 -29 85 -50 72 -6 -4 -10 -2 -10 4 0 5 6 12 13 15 9
5 9 7 -1 12 -6 3 -10 10 -6 15 3 5 0 9 -6 9 -6 0 -8 5 -5 10 3 6 1 10 -4 10
-6 0 -11 5 -11 11 0 14 -40 65 -41 53z"/>
<path d="M7152 457 c-49 -20 -142 -99 -142 -119 0 -5 -4 -6 -10 -3 -5 3 -10 1
-10 -4 0 -16 0 -15 99 33 91 45 161 91 161 107 0 15 -43 9 -98 -14z"/>
<path d="M5960 440 c0 -5 5 -10 10 -10 6 0 10 5 10 10 0 6 -4 10 -10 10 -5 0
-10 -4 -10 -10z"/>
<path d="M5976 395 c4 -8 8 -15 10 -15 2 0 4 7 4 15 0 8 -4 15 -10 15 -5 0 -7
-7 -4 -15z"/>
<path d="M7950 387 c0 -15 -3 -16 -20 -7 -16 8 -20 8 -20 -4 0 -8 8 -17 19
-21 10 -3 29 -14 41 -25 28 -24 48 -27 24 -3 -9 9 -23 31 -30 48 -8 19 -13 23
-14 12z"/>
<path d="M6000 345 c14 -8 33 -14 43 -15 10 0 16 -4 13 -8 -2 -4 4 -8 15 -8
50 0 -2 36 -59 41 -36 3 -37 3 -12 -10z"/>
<path d="M7747 346 c-4 -9 -14 -16 -24 -16 -15 0 -16 -2 -3 -10 8 -5 37 -9 63
-8 38 1 51 -3 63 -20 8 -12 31 -24 52 -27 20 -4 45 -9 54 -12 13 -3 16 0 12
11 -3 9 -12 16 -20 16 -8 0 -14 4 -14 10 0 5 -19 14 -42 21 -24 6 -55 18 -71
26 -15 8 -32 11 -38 7 -6 -3 -15 -1 -19 6 -5 8 -9 7 -13 -4z"/>
<path d="M7670 341 c0 -6 4 -13 10 -16 6 -3 7 1 4 9 -7 18 -14 21 -14 7z"/>
<path d="M1030 325 c0 -29 94 -115 179 -165 91 -53 171 -122 171 -147 0 -9 16
-13 60 -13 33 0 60 4 60 9 0 9 -35 34 -90 64 -19 10 -26 15 -15 12 19 -6 19
-5 3 11 -14 14 -20 15 -33 4 -13 -11 -15 -10 -10 2 3 8 -1 21 -10 28 -13 11
-13 15 -3 22 9 6 5 7 -9 3 -16 -4 -23 -2 -23 7 -1 23 -117 136 -154 149 -20 7
-36 15 -36 19 0 3 -20 6 -45 6 -30 1 -45 -3 -45 -11z"/>
<path d="M8042 283 c15 -15 30 -24 34 -21 8 8 -32 48 -48 48 -7 0 0 -12 14
-27z"/>
<path d="M4745 212 c-28 -25 -227 -82 -287 -82 -18 0 -40 -5 -48 -10 -10 -7 9
-10 63 -10 68 0 77 -2 77 -18 0 -28 45 -44 138 -50 l82 -5 0 92 c0 87 -4 101
-25 83z"/>
<path d="M97 172 c-27 -28 -34 -65 -18 -91 8 -13 27 14 51 75 15 37 -4 46 -33
16z"/>
<path d="M7800 191 c0 -5 6 -16 14 -24 13 -12 12 -16 -10 -26 -21 -9 -23 -13
-12 -31 7 -11 16 -20 20 -20 5 0 8 -7 8 -15 0 -8 4 -15 10 -15 5 0 16 -14 25
-30 l16 -30 159 0 c145 0 160 2 161 18 2 30 -3 46 -23 75 -14 20 -23 25 -32
18 -16 -13 -96 -6 -132 11 -16 8 -36 14 -44 13 -8 -1 -22 5 -31 12 -9 8 -33
15 -54 16 -22 2 -41 9 -46 20 -11 18 -29 23 -29 8z"/>
<path d="M7726 175 c-3 -8 -2 -15 3 -15 5 0 14 7 21 15 10 12 10 15 -3 15 -8
0 -17 -7 -21 -15z"/>
<path d="M7780 170 c-8 -5 -11 -12 -7 -16 4 -4 13 -2 19 4 15 15 7 24 -12 12z"/>
<path d="M1197 20 c-3 -11 -1 -20 4 -20 5 0 9 9 9 20 0 11 -2 20 -4 20 -2 0
-6 -9 -9 -20z"/>
</g>
</svg>
